<svg width="800" viewBox="0 0 800 340" xmlns="http://www.w3.org/2000/svg" style="background:#0a0b0d;font-family:'Barlow',sans-serif">
  <defs>
    <marker id="arr" viewBox="0 0 10 10" refX="8" refY="5" markerWidth="6" markerHeight="6" orient="auto-start-reverse">
      <path d="M2 1L8 5L2 9" fill="none" stroke="#5F5E5A" stroke-width="1.5" stroke-linecap="round" stroke-linejoin="round"/>
    </marker>
  </defs>

  <!-- Title -->
  <text x="400" y="26" text-anchor="middle" font-size="13" font-weight="600" fill="#e2e4e9" font-family="'Barlow Condensed',sans-serif" letter-spacing="0.08em">STRANDS-LABS/ROBOTS → THIS PROJECT</text>

  <!-- Column headers -->
  <rect x="40" y="36" width="320" height="28" rx="6" fill="#26215C" stroke="#7F77DD" stroke-width="0.5"/>
  <text x="200" y="54" text-anchor="middle" font-size="12" font-weight="600" fill="#CECBF6" font-family="'Barlow Condensed',sans-serif" letter-spacing="0.06em">strands-labs/robots</text>

  <rect x="440" y="36" width="320" height="28" rx="6" fill="#04342C" stroke="#1D9E75" stroke-width="0.5"/>
  <text x="600" y="54" text-anchor="middle" font-size="12" font-weight="600" fill="#9FE1CB" font-family="'Barlow Condensed',sans-serif" letter-spacing="0.06em">This project</text>

  <!-- Center arrow label -->
  <text x="400" y="54" text-anchor="middle" font-size="18" fill="#3a3f4a">→</text>

  <!-- Row data -->
  <!-- Helper: alternating rows -->
  <!-- y positions: 72, 98, 124, 150, 176, 202, 228, 254, 280, 306 -->

  <!-- Row 1 -->
  <rect x="40" y="68" width="320" height="24" rx="4" fill="#111318" stroke="#3a3f4a" stroke-width="0.5"/>
  <text x="55" y="84" font-size="11" fill="#AFA9EC" font-family="'Barlow Mono',monospace">Robot(AgentTool)</text>
  <rect x="440" y="68" width="320" height="24" rx="4" fill="#111318" stroke="#3a3f4a" stroke-width="0.5"/>
  <text x="455" y="84" font-size="11" fill="#5DCAA5" font-family="'Barlow Mono',monospace">DeepRacerTool(AgentTool)</text>

  <!-- Row 2 -->
  <rect x="40" y="96" width="320" height="24" rx="4" fill="#181c22" stroke="#3a3f4a" stroke-width="0.5"/>
  <text x="55" y="112" font-size="11" fill="#AFA9EC" font-family="'Barlow Mono',monospace">execute / start / status / stop</text>
  <rect x="440" y="96" width="320" height="24" rx="4" fill="#181c22" stroke="#3a3f4a" stroke-width="0.5"/>
  <text x="455" y="112" font-size="11" fill="#5DCAA5" font-family="'Barlow Mono',monospace">identical four-action tool_spec</text>

  <!-- Row 3 -->
  <rect x="40" y="124" width="320" height="24" rx="4" fill="#111318" stroke="#3a3f4a" stroke-width="0.5"/>
  <text x="55" y="140" font-size="11" fill="#AFA9EC" font-family="'Barlow Mono',monospace">RobotTaskState + TaskStatus</text>
  <rect x="440" y="124" width="320" height="24" rx="4" fill="#111318" stroke="#3a3f4a" stroke-width="0.5"/>
  <text x="455" y="140" font-size="11" fill="#5DCAA5" font-family="'Barlow Mono',monospace">DeepRacerTaskState + TaskStatus</text>

  <!-- Row 4 -->
  <rect x="40" y="152" width="320" height="24" rx="4" fill="#181c22" stroke="#3a3f4a" stroke-width="0.5"/>
  <text x="55" y="168" font-size="11" fill="#AFA9EC" font-family="'Barlow Mono',monospace">ThreadPoolExecutor(max_workers=1)</text>
  <rect x="440" y="152" width="320" height="24" rx="4" fill="#181c22" stroke="#3a3f4a" stroke-width="0.5"/>
  <text x="455" y="168" font-size="11" fill="#5DCAA5" font-family="'Barlow Mono',monospace">identical — one plan at a time</text>

  <!-- Row 5 -->
  <rect x="40" y="180" width="320" height="24" rx="4" fill="#111318" stroke="#3a3f4a" stroke-width="0.5"/>
  <text x="55" y="196" font-size="11" fill="#AFA9EC" font-family="'Barlow Mono',monospace">threading.Event shutdown</text>
  <rect x="440" y="180" width="320" height="24" rx="4" fill="#111318" stroke="#3a3f4a" stroke-width="0.5"/>
  <text x="455" y="196" font-size="11" fill="#5DCAA5" font-family="'Barlow Mono',monospace">identical — checked each step</text>

  <!-- Row 6 -->
  <rect x="40" y="208" width="320" height="24" rx="4" fill="#181c22" stroke="#3a3f4a" stroke-width="0.5"/>
  <text x="55" y="224" font-size="11" fill="#AFA9EC" font-family="'Barlow Mono',monospace">Policy (GR00T / Mock)</text>
  <rect x="440" y="208" width="320" height="24" rx="4" fill="#181c22" stroke="#3a3f4a" stroke-width="0.5"/>
  <text x="455" y="224" font-size="11" fill="#5DCAA5" font-family="'Barlow Mono',monospace">NavigationPolicy (Nova/Mock/Camera)</text>

  <!-- Row 7 -->
  <rect x="40" y="236" width="320" height="24" rx="4" fill="#111318" stroke="#3a3f4a" stroke-width="0.5"/>
  <text x="55" y="252" font-size="11" fill="#AFA9EC" font-family="'Barlow Mono',monospace">create_policy(provider, **kwargs)</text>
  <rect x="440" y="236" width="320" height="24" rx="4" fill="#111318" stroke="#3a3f4a" stroke-width="0.5"/>
  <text x="455" y="252" font-size="11" fill="#5DCAA5" font-family="'Barlow Mono',monospace">same factory in agent.py</text>

  <!-- Row 8 — observation loop (highlighted) -->
  <rect x="40" y="264" width="320" height="36" rx="4" fill="#1a1040" stroke="#7F77DD" stroke-width="0.8"/>
  <text x="55" y="279" font-size="11" fill="#CECBF6" font-family="'Barlow Mono',monospace">get_observation()</text>
  <text x="55" y="294" font-size="11" fill="#CECBF6" font-family="'Barlow Mono',monospace">→ get_actions() → send_action()</text>
  <rect x="440" y="264" width="320" height="36" rx="4" fill="#1a1040" stroke="#f5a623" stroke-width="0.8"/>
  <text x="455" y="279" font-size="11" fill="#FAC775" font-family="'Barlow Mono',monospace">get_latest_frame()</text>
  <text x="455" y="294" font-size="11" fill="#FAC775" font-family="'Barlow Mono',monospace">→ assess_step() → execute_step()</text>

  <!-- Row 9 -->
  <rect x="40" y="304" width="320" height="24" rx="4" fill="#111318" stroke="#3a3f4a" stroke-width="0.5"/>
  <text x="55" y="320" font-size="11" fill="#AFA9EC" font-family="'Barlow Mono',monospace">cleanup() / __del__</text>
  <rect x="440" y="304" width="320" height="24" rx="4" fill="#111318" stroke="#3a3f4a" stroke-width="0.5"/>
  <text x="455" y="320" font-size="11" fill="#5DCAA5" font-family="'Barlow Mono',monospace">+ camera_stream.stop() (Phase 3)</text>

  <!-- Center connectors -->
  <line x1="362" y1="80" x2="438" y2="80" stroke="#3a3f4a" stroke-width="0.5" stroke-dasharray="2 2"/>
  <line x1="362" y1="108" x2="438" y2="108" stroke="#3a3f4a" stroke-width="0.5" stroke-dasharray="2 2"/>
  <line x1="362" y1="136" x2="438" y2="136" stroke="#3a3f4a" stroke-width="0.5" stroke-dasharray="2 2"/>
  <line x1="362" y1="164" x2="438" y2="164" stroke="#3a3f4a" stroke-width="0.5" stroke-dasharray="2 2"/>
  <line x1="362" y1="192" x2="438" y2="192" stroke="#3a3f4a" stroke-width="0.5" stroke-dasharray="2 2"/>
  <line x1="362" y1="220" x2="438" y2="220" stroke="#3a3f4a" stroke-width="0.5" stroke-dasharray="2 2"/>
  <line x1="362" y1="248" x2="438" y2="248" stroke="#3a3f4a" stroke-width="0.5" stroke-dasharray="2 2"/>
  <line x1="362" y1="282" x2="438" y2="282" stroke="#7F77DD" stroke-width="0.8" stroke-dasharray="2 2"/>
  <line x1="362" y1="316" x2="438" y2="316" stroke="#3a3f4a" stroke-width="0.5" stroke-dasharray="2 2"/>
</svg>
